<svg width="78" height="60" viewBox="0 0 78 60" fill="none" xmlns="http://www.w3.org/2000/svg">
<path d="M75.2383 39.6601C75.1215 39.3035 74.8203 39.07 74.4822 39.07L71.753 39.0823V32.9292L63.9464 35.4617C63.6575 35.5478 63.4608 35.8182 63.4608 36.1256V39.0823H60.75C60.4058 39.0823 60.1046 39.3097 59.9878 39.6601L57.3262 47.9645H63.4608V59.9879H71.1506C71.4825 59.9879 71.7468 59.7113 71.7468 59.3732V47.9645H77.9306L75.2321 39.6601H75.2383Z" fill="#fff"/>
<path d="M25.528 17.9676C25.4542 18.2012 25.4542 18.4593 25.528 18.6929L38.7561 59.5207C38.8483 59.8096 39.0942 60.0002 39.3708 60.0002H48.0318L29.8493 4.26611L25.528 17.9737V17.9676Z" fill="#fff"/>
<path d="M28.9212 39.0944H15.7484L28.4295 0H19.7869C19.5103 0 19.2644 0.190554 19.1722 0.479459L0 59.9938H8.61797C8.89458 59.9938 9.14046 59.8033 9.23266 59.5144L12.8409 48.3455C12.9147 48.118 13.1237 47.9643 13.3572 47.9643H32.2405L29.5359 39.5677C29.4437 39.2788 29.1978 39.0882 28.9212 39.0882" fill="#fff"/>
<path d="M57.6335 11.9805C57.3261 11.9805 57.0557 12.1833 56.9573 12.4845L45.4688 47.9768H54.1052C54.3756 47.9768 54.6154 47.7924 54.7014 47.5281L66.2392 11.9866H57.6335V11.9805Z" fill="#fff"/>
</svg>
