<svg width="100" height="40" viewBox="0 0 100 40" fill="none" xmlns="http://www.w3.org/2000/svg">
<g clip-path="url(#clip0_7057_7414)">
<path d="M99.9919 18.8598V37.9781H75.186C78.6974 36.3848 82.0394 34.0825 84.2439 32.4393C87.5941 29.9419 92.8764 25.9057 96.5938 22.3192C98.6067 20.3768 99.5079 19.5385 99.9919 18.8593V18.8598Z" fill="#fff"/>
<path d="M22.5779 5.44598L11.2559 18.1764H20.995C21.7303 12.3401 22.5779 5.44598 22.5779 5.44598Z" fill="#fff"/>
<path d="M99.9921 7.50423C99.9921 4.46401 97.5275 2 94.4878 2H25.3551C25.3551 2 22.8293 24.5798 22.7222 25.4933C22.7021 25.7338 22.6089 26.4212 22.9936 26.9372C23.7083 27.895 25.1862 27.7333 25.1862 27.7333L25.8227 24.055H26.9885C26.9885 24.055 26.5853 26.1869 27.8227 26.9938C29.0601 27.8007 30.4355 27.173 30.4355 27.173C30.4355 27.173 31.9891 26.5911 32.2342 25.0906C32.5931 22.8933 30.9623 21.5854 30.9623 21.5854L28.2547 18.8783C27.6008 18.0786 26.5838 16.8886 26.5379 15.3896C26.4885 13.7495 27.161 12.7742 28.4824 11.889C30.1868 10.7473 32.1055 11.1696 33.2919 11.4296C33.827 11.5301 34.9037 11.8622 34.9037 11.8622L34.5067 15.0363L33.673 14.9689C33.673 14.9689 33.8419 14.2083 33.6781 13.7361C33.4727 13.1449 33.0072 12.4266 31.3326 12.494C29.658 12.5615 29.0812 13.8906 29.0998 14.5811C29.1214 15.4071 29.6245 16.8989 31.9314 18.6409C34.2384 20.3825 34.5808 22.0571 34.7425 22.5545C34.9042 23.0524 35.2142 25.4433 33.7971 27.1359C32.4299 28.7693 30.6791 28.9975 29.5761 28.9779C27.8783 28.9475 27.0637 27.9573 26.835 27.7055C26.4324 27.2606 26.2485 26.846 26.2485 26.846L25.9916 28.7225H16.8987L16.9332 27.7158C16.9332 27.7158 18.4075 27.6318 18.9389 27.363C19.4703 27.0942 19.7731 26.7915 19.941 26.1591C20.0017 25.931 20.3612 23.175 20.7963 19.7434H9.86199C9.86199 19.7434 2.7846 27.5149 1.51681 29.1813C0.412257 30.4784 0.033773 31.6587 0.00390625 32.6886C0.116679 35.6289 2.53588 37.9786 5.50402 37.9786H67.1587C71.7901 37.9786 75.3886 36.2474 78.125 34.4718C80.2656 33.0825 83.2023 31.0902 84.9052 29.6597C85.0649 29.5299 87.1885 27.9233 87.6164 24.8182C87.7096 24.1415 88.3863 18.0096 88.3863 16.9416C88.3863 15.8736 88.2895 14.6115 86.7678 14.32C85.2467 14.0286 84.4377 14.6115 84.4377 14.6115C84.4377 14.6115 83.8877 14.8381 82.7548 16.23C81.622 17.6218 81.331 19.4988 81.331 19.4988L79.8593 28.5304L77.3675 28.8219L79.4865 15.0327C79.6193 13.8453 79.5122 13.337 79.1889 13.2721C78.8655 13.2072 78.5019 13.2144 78.5019 13.2144L78.6312 12.5347L82.1081 12.2819L81.6874 15.68C81.6874 15.68 82.7899 13.9225 84.0499 13.0909C85.827 11.9178 87.9661 12.0229 88.9043 12.4111C89.843 12.7994 90.2638 13.5116 90.2638 13.5116C90.2638 13.5116 90.9131 14.4158 90.911 15.6151C90.909 16.5636 90.5877 19.7578 90.5877 19.7578L90.0377 25.1627L89.9491 25.6364C91.7319 24.1652 93.6634 22.5107 94.6068 21.6693C96.3813 20.0859 97.9745 18.4159 99.0909 16.9715C99.5281 16.3937 99.9931 15.4488 100.001 13.8174L99.9936 7.50526L99.9921 7.50423ZM66.9934 7.59898C67.7581 7.59898 68.3776 8.21898 68.3776 8.98315C68.3776 9.74733 67.7576 10.3673 66.9934 10.3673C66.2293 10.3673 65.6093 9.74784 65.6093 8.98315C65.6093 8.21846 66.2293 7.59898 66.9934 7.59898ZM61.8749 7.62833C62.6391 7.62833 63.2591 8.24833 63.2591 9.0125C63.2591 9.77668 62.6391 10.3967 61.8749 10.3967C61.1107 10.3967 60.4907 9.77719 60.4907 9.0125C60.4907 8.24781 61.1102 7.62833 61.8749 7.62833ZM40.722 28.5871C39.7534 28.1344 39.3549 27.6566 38.7236 26.5077C38.7024 26.4696 38.3986 28.5139 38.3986 28.5139L35.8929 28.826L38.7647 10.7674C38.7647 10.7674 38.997 9.48471 38.5758 9.04958C38.4166 8.8848 38.2189 8.57995 37.6128 8.55678C37.1803 8.5403 36.8821 8.6093 36.8821 8.6093L36.9836 7.8786L41.6824 7.21072L40.7962 13.4122C40.7962 13.4122 41.4687 12.3473 42.5918 11.7958C43.289 11.4533 44.6001 10.9441 46.2793 11.4569C47.9585 11.9698 49.0765 13.2958 49.5024 15.0044C49.9282 16.7125 49.0811 21.6106 49.0811 21.6106C49.0811 21.6106 48.6893 24.2095 47.6099 25.8836C46.526 27.5654 44.9533 28.4243 43.7144 28.773C43.3745 28.8687 41.8312 29.1051 40.7226 28.5876L40.722 28.5871ZM53.8392 25.2785C53.8392 25.2785 53.4854 27.8085 52.3711 29.0932C51.4066 30.2055 50.3391 31.4527 47.6516 32.4754C46.3128 32.9847 45.8952 33.118 45.8952 33.118L44.4137 32.1088C44.4137 32.1088 45.9343 31.6891 47.6125 30.8502C49.2907 30.0114 50.5621 28.5165 50.9818 26.6813C51.4015 24.846 52.2928 17.8587 52.2928 17.8587C52.2928 17.8587 52.6209 15.2104 52.6471 14.8041C52.6734 14.3978 52.7815 13.2299 51.299 13.2057C50.8546 13.1985 50.7707 13.2232 50.7707 13.2232L50.8912 12.5291L55.7404 12.2345L53.8397 25.2785H53.8392ZM54.2424 10.5336C53.4025 10.5336 52.7213 9.85238 52.7213 9.0125C52.7213 8.17263 53.402 7.49136 54.2424 7.49136C55.0828 7.49136 55.7636 8.17263 55.7636 9.0125C55.7636 9.85238 55.0823 10.5336 54.2424 10.5336ZM69.7515 20.3001C69.6717 21.0833 69.1392 23.8532 68.6922 24.8017C68.3071 25.6205 67.6654 26.9907 66.3874 27.8296C64.9836 28.7513 64.1201 28.9022 62.4872 28.9135C61.3929 28.8651 60.4856 28.6736 59.846 28.3002C59.207 27.9269 58.3331 27.5494 57.6029 25.9773C56.6261 23.8753 56.7775 21.4942 56.9799 19.5704C57.1168 18.3217 57.2044 16.0204 58.7713 13.8787C60.2873 11.8061 62.2348 11.4446 62.2348 11.4446C62.7277 11.285 65.1057 11.0234 66.8158 11.9812C67.9996 12.6444 69.0342 13.4776 69.5985 15.4524C70.1078 17.2346 69.751 20.2996 69.751 20.2996L69.7515 20.3001ZM82.2167 10.9394C82.0736 10.9034 80.7059 10.8303 79.8258 11.0095C78.7156 11.2355 77.9406 11.802 77.2691 12.8571C76.9174 13.4091 75.6744 16.1846 75.3999 17.2676C75.1249 18.3505 74.816 20.0658 74.816 20.0658L73.5832 28.5181L70.9585 28.8265L72.8159 16.4462C72.8159 16.4462 73.0538 14.9241 72.9498 14.355C72.8386 13.7474 72.5348 13.4235 71.7623 13.2587C71.5121 13.2052 71.0296 13.2222 71.0296 13.2222L71.114 12.5265L75.5189 12.2803L75.1491 15.7335C75.1491 15.7335 75.8752 13.1727 76.8515 11.6099C77.9587 9.83744 78.6533 9.59696 79.3902 9.21694C80.1271 8.83639 82.486 8.78078 82.486 8.78078L82.2178 10.9399L82.2167 10.9394Z" fill="#fff"/>
<path d="M64.1425 12.5466C63.8578 12.5358 63.2656 12.5322 62.7723 12.733C62.4 12.8844 61.627 13.2366 60.9262 14.4864C60.2254 15.7361 59.956 17.8454 59.8685 18.5354C59.781 19.2254 59.2053 23.0782 59.7151 24.8651C60.2248 26.6514 60.937 27.2977 62.5529 27.5608C64.1693 27.8239 65.3532 26.328 65.4953 26.12C66.2682 24.7389 66.7064 23.3635 66.9639 20.3336C67.2219 17.3031 67.1828 15.6347 66.4758 14.1197C65.8346 12.7443 64.6621 12.5656 64.1415 12.5476L64.1425 12.5466Z" fill="#fff"/>
<path d="M46.9611 15.4725C46.8962 15.1326 46.44 13.372 44.8087 13.0939C43.4817 12.8674 42.7062 13.1599 41.7664 13.9838C40.7143 14.906 40.391 16.5245 40.391 16.5245L39.7102 19.9216C39.7102 19.9216 39.0954 23.8053 39.2411 24.7924C39.3868 25.7796 39.7751 26.362 40.1958 26.6534C40.6165 26.9449 41.3936 27.2358 42.3802 27.1874C43.3673 27.139 44.4513 26.5726 45.131 25.5854C45.8107 24.5983 46.1269 23.1946 46.5064 20.747C46.9431 17.9313 47.0739 16.2495 46.9606 15.473L46.9611 15.4725Z" fill="#fff"/>
<path d="M18.8701 2L13.9122 8.36213H12.5373L16.1388 2H5.50423C2.46452 2 0 4.46452 0 7.50423V27.3491L22.9258 2H18.8701Z" fill="#fff"/>
</g>
<defs>
<clipPath id="clip0_7057_7414">
<rect width="100" height="35.9786" fill="white" transform="translate(0 2)"/>
</clipPath>
</defs>
</svg>
