<svg width="791" height="88" viewBox="0 0 791 88" fill="none" xmlns="http://www.w3.org/2000/svg">
<mask id="mask0_9700_14093" style="mask-type:alpha" maskUnits="userSpaceOnUse" x="158" y="0" width="631" height="83">
<path fill-rule="evenodd" clip-rule="evenodd" d="M158.486 0.369141H788.277V82.4841H158.486V0.369141Z" fill="black"/>
</mask>
<g mask="url(#mask0_9700_14093)">
<path fill-rule="evenodd" clip-rule="evenodd" d="M357.304 60.3274C357.108 71.6804 349.081 82.4841 333.47 82.4841C320.299 82.4841 309.28 72.6257 308.681 59.9532C310.978 59.9561 320.895 59.9532 322.667 59.9532C322.969 66.2419 327.306 70.0178 334.858 69.6781C341.597 69.3671 344.732 63.5098 344.841 59.0263C344.975 53.6199 344.033 48.7686 329.121 43.4727C316.381 38.948 310.244 33.4493 310.244 20.8749C310.244 8.25918 321.812 0.539379 331.842 0.374387C348.51 0.0951665 356.221 11.0165 355.987 20.1387H342.28C341.865 15.4459 337.301 12.1302 332.434 12.1302C327.465 12.1302 322.583 15.4967 322.576 22.0933C322.57 29.2451 326.837 31.8216 337.089 35.5435C355.002 41.4293 357.547 49.99 357.304 60.3274Z" fill="#fff"/>
<path fill-rule="evenodd" clip-rule="evenodd" d="M207.106 60.3274C206.91 71.6804 198.883 82.4841 183.272 82.4841C170.101 82.4841 159.086 72.6257 158.486 59.9532C160.783 59.9561 170.697 59.9532 172.472 59.9532C172.771 66.2419 177.111 70.0178 184.66 69.6781C191.399 69.3671 194.534 63.5098 194.646 59.0263C194.78 53.6199 193.835 48.7686 178.923 43.4727C166.183 38.948 160.049 33.4493 160.049 20.8749C160.049 8.25918 171.614 0.539379 181.647 0.374387C198.312 0.0951665 206.026 11.0165 205.79 20.1387H192.082C191.667 15.4459 187.106 12.1302 182.24 12.1302C177.27 12.1302 172.388 15.4967 172.381 22.0933C172.375 29.2451 176.64 31.8216 186.894 35.5435C204.804 41.4293 207.353 49.99 207.106 60.3274Z" fill="#fff"/>
<path fill-rule="evenodd" clip-rule="evenodd" d="M781.758 2.36935C785.451 2.40425 788.304 5.34559 788.275 8.99768C788.246 12.7259 785.349 15.5847 781.608 15.5562C777.91 15.5244 774.979 12.6243 775.003 8.90247C775.042 5.24407 778.012 2.34079 781.71 2.36935H781.758ZM781.661 3.70516C778.817 3.67978 776.677 6.01823 776.658 8.90562C776.638 11.8343 778.735 14.1759 781.661 14.2013C784.495 14.2584 786.606 11.9168 786.625 8.98496C786.65 6.09121 784.568 3.72738 781.7 3.70516H781.661ZM780.603 12.3451L779.113 12.3356L779.162 5.80247C779.759 5.68509 780.584 5.5677 781.642 5.57721C782.874 5.58672 783.398 5.79932 783.898 6.11659C784.238 6.40854 784.519 6.93525 784.51 7.52224C784.51 8.29645 783.937 8.84535 783.156 9.08333V9.15631C783.782 9.36256 784.141 9.89243 784.325 10.7714C784.519 11.7772 784.631 12.177 784.786 12.3737L783.17 12.3642C782.971 12.1135 782.855 11.5614 782.675 10.7904C782.559 10.0733 782.166 9.75602 781.336 9.7433L780.632 9.74015L780.603 12.3451ZM780.681 8.65813L781.389 8.66769C782.219 8.674 782.879 8.38846 782.879 7.70941C782.884 7.10656 782.467 6.70679 781.511 6.69727C781.127 6.69407 780.855 6.74168 780.686 6.77977L780.681 8.65813Z" fill="#fff"/>
<path fill-rule="evenodd" clip-rule="evenodd" d="M556.471 2.61328H544.557V79.8367H586.218V68.7505H557.024L556.471 68.1731V2.61328Z" fill="#fff"/>
<path fill-rule="evenodd" clip-rule="evenodd" d="M484.572 2.61328H472.651V79.8367H514.314V68.7505L485.123 68.7345L484.572 68.1731V2.61328Z" fill="#fff"/>
<path fill-rule="evenodd" clip-rule="evenodd" d="M252.656 14.2866L252.107 13.725L231.842 13.7409V2.61328H285.384V13.7409L265.144 13.725L264.589 14.2866L264.579 79.8367L252.656 79.8241V14.2866Z" fill="#fff"/>
<path fill-rule="evenodd" clip-rule="evenodd" d="M660.904 2.61328H619.287V79.8302H660.904V68.7475H631.725L631.181 68.1889V46.4921L631.725 45.94H656.018V34.6887H631.725L631.181 34.1366V14.2898L631.725 13.7345H660.904V2.61328Z" fill="#fff"/>
<path fill-rule="evenodd" clip-rule="evenodd" d="M433.632 2.61328H392.017V79.8302H433.632V68.7475H404.461L403.912 68.1889V46.4921L404.455 45.94H428.753V34.6887H404.455L403.912 34.1366V14.2898L404.455 13.7345H433.632V2.61328Z" fill="#fff"/>
</g>
<path fill-rule="evenodd" clip-rule="evenodd" d="M127.755 2.6582H86.1396V79.8754H127.755V68.7888H98.5807L98.0347 68.2371L98.0318 46.5402L98.5807 45.9818H122.877V34.7337H98.5807L98.0318 34.1784V14.341L98.5807 13.7826H127.755V2.6582Z" fill="#fff"/>
<path fill-rule="evenodd" clip-rule="evenodd" d="M711.669 34.7305L711.116 34.1689V14.3379L711.66 13.7731L719.288 13.7604C728.115 13.7604 731.192 19.4685 731.192 24.0027C731.192 33.0012 725.364 34.8447 719.317 34.7305H711.669ZM717.527 2.6582C712.916 2.6582 701.396 2.6582 699.198 3.08973V79.831H711.136C711.136 78.7551 711.116 47.0765 711.116 47.0765L711.66 46.5434H717.478C722.879 46.5434 724.815 50.151 727.218 55.4973C730.479 62.8016 731.959 69.265 735.031 79.8407L748.012 79.831C746.794 75.7915 742.397 62.2528 738.554 51.7849C736.287 45.6074 733.376 42.2187 729.916 41.3493V41.0034C736.181 38.4968 743.023 34.0546 743.324 22.6986C743.489 16.9302 742.276 11.8027 738.656 8.24895C734.157 3.91153 727.023 2.6582 717.527 2.6582Z" fill="#fff"/>
<path fill-rule="evenodd" clip-rule="evenodd" d="M20.5484 68.7657C18.8264 68.7657 17.8062 68.7657 17.3102 68.7657L16.758 68.1882V46.52L17.3102 45.952L24.6882 45.933C33.0487 45.933 38.7639 50.0612 38.7639 57.8572C38.7577 63.9935 36.003 68.7657 25.3526 68.8036C23.5089 68.8036 21.8992 68.7657 20.5484 68.7657ZM17.3227 34.6975L16.7705 34.1327L16.758 14.3049L17.3102 13.7433C18.0652 13.7433 18.5362 13.7497 19.235 13.7497C20.8603 13.7497 22.4763 13.7592 24.7193 13.7592C33.6664 13.7592 36.4429 18.3155 36.4429 23.6683C36.4429 30.2649 33.838 34.7165 25.2652 34.7165C25.0656 34.7165 17.3227 34.6975 17.3227 34.6975ZM24.0549 2.63477C23.8084 2.63477 23.5682 2.63794 23.3124 2.63794C18.764 2.67601 7.01542 2.63794 4.85352 3.03773V79.6965C7.22132 80.1314 18.9387 80.2357 23.8895 80.2357C36.0592 80.2357 40.5483 78.8493 45.3807 74.4735C49.2645 70.9043 51.1925 65.4911 51.1925 58.8088C51.1925 47.3608 45.9515 42.154 39.2287 39.6124V39.2666C44.3356 36.5283 48.2445 31.7879 48.2445 22.0723C48.2445 15.9421 46.2417 11.5127 42.6604 8.25405C38.1962 4.18951 32.1628 2.63477 24.0549 2.63477Z" fill="#fff"/>
</svg>
