<svg xmlns="http://www.w3.org/2000/svg" width="130" height="40" viewBox="0 0 130 40" fill="none">
  <!-- Second SVG (Dark #fff Abstract Icon) -->
  <g transform="translate(95, 0)">
    <path d="M34.047 2.899l.753 2.966c-2.667 2.307-5.627 4.214-8.2 6.607-5.574 2.2-19.861-2.54-21.334-7.887l.753-.533c.227 2.307 3.06 3.333 4.967 4.167 4.667.186 9.76 3.627 14.36 1.24l-.086 1.42h.446c2.48-2.127 5.274-3.947 7.62-6.207-.533-6.28-8.973-3.594-12.233-1.24l1.287 1.153c-3.027 1.494-6.767-1.106-9.267-2.753a13.247 13.247 0 016.74 1.153c4.093-1.947 10.88-5.567 14.194-.086z" fill="#fff"/>
    <path d="M21.068 6.093c.973.04 1.953 0 2.487-.754.753.887 1.547 1.774 1.593 2.967-5.72 2.487-10.507-1.333-15.254-4.033a1.707 1.707 0 01-.706-1.814l.533-.227c2.08 4.3 7.667 2.307 11.334 3.86M9.067 11.718c6 .62 12 3.9 18.087 1.6.18-.227.487-.4.533-.667l.534 1.814 2.127-.394c.687.498 1.326 1.06 1.906 1.68L25.541 38l-9.047 2c-1.58-1.26-1.554-1.274-1.06-3.28-11.074 7.847-19.074-.574-13.3-12.14l-.094-.534c2.62 3.453 6.787 2.08 10.2 3.633-3.84 2.054-6.667.32-9.44-2.44-6.767 15.194 5.967 15.96 14.894 6.56l-1.734 6.3c2.62-.266 5.28-1.153 7.894-1.686 2.307-7.08 4.3-14.274 6.474-21.414-2.354.047-4.52 1.153-6.92 1.507-2.948 1.333-13.295-1.82-15.735-4.254-1.86-1.333-5.333-2.087-5.1-5.007l.4-.533c.22 3.053 3.814 4 6.074 5.007" fill="#fff"/>
    <path d="M7.368 15.532c1.9 1.06 4.667.133 6.667.84a48.379 48.379 0 008.513 1.506l-1.686 2.667c-3.627.427-22.335-5.8-20.001-10.193.84 2.926 4.167 3.9 6.52 5.186" fill="#fff"/>
    <path d="M9.58 20.1c3.767-.447 7 1.153 10.42 1.506l-2.22 2.213c-3.96-.273-18.133-4-17.773-8.506a12.28 12.28 0 009.573 4.786z" fill="#fff"/>
    <path d="M12.68 24.18l3.72.62-2.794 2.127C10.159 26.26.866 23.174.219 19.387c3.333 3.333 7.4 5.333 12.454 4.793" fill="#fff"/>
  </g>
    <!-- First SVG (Pink Logo/Text) -->
  <g transform="translate(0, 8)">
    <path d="M16.965 1.925c1.932 1.733 2.125 4.452 1.932 6.844h-2.999c0-1.86.207-3.852-1.332-5.111-1.193-1.333-3.059-.8-4.585-.473C5.597 5.25 3.737 9.768 3.398 14.22c0 2.392.4 4.717 2.592 6.043a6.05 6.05 0 004.59-.326 9.642 9.642 0 003.999-5.917c-1.193-.267-3.139 0-4.664-.047.413-.89.774-1.805 1.079-2.739l7.33-.073-3.059 11.368c-1.132.666-1.599-.6-2.059-1.333-2.458 1.333-5.25 2.86-8.31 1.8-2.665-1.067-4.45-3.859-4.784-6.584-.6-5.45 1.193-10.662 5.584-13.994 3.052-2.325 8.17-3.525 11.329-.466M46.805 0c-.666 2.126-1.2 4.251-1.726 6.377 1.926-.666 5.185-1.126 6.977.666 2.792 2.393 2.06 6.444 1.333 9.57a10.535 10.535 0 01-4.525 5.25 6.877 6.877 0 01-6.044 0c-.6-.533-1.599-1.113-1.932-1.905l-.826 2.405s-1.88 0-2.826-.033L43.84 0h2.965zm3.892 10.315c-.533-1.659-2.666-2.272-4.225-1.872-3.385 1.592-3.998 5.71-3.785 9.102.46.866.793 2.06 1.926 2.392 1.46.534 3.272-.333 4.338-1.399 1.792-2.392 3.072-5.098 1.746-8.223zM19.891 22.33H16.7L23.343.335H26.4l-6.51 21.997zM36.435 7.176a6.903 6.903 0 011.926 6.044 11.082 11.082 0 01-5.451 8.81c-1.66.8-4.118 1.032-5.844.166-2.925-1.333-3.872-4.405-3.525-7.377.533-3.391 2.199-7.11 5.717-8.569a6.59 6.59 0 017.177.926zm-1.26 3.525a3.112 3.112 0 00-3.518-2.392 5.418 5.418 0 00-3.332 2.392c-1.4 2.26-2.459 5.844-.666 8.303a3.332 3.332 0 003.525.933c3.472-1.56 4.798-6.877 3.998-9.236M80.762 6.664a5.95 5.95 0 011.466 4.038h-2.712A2.698 2.698 0 0077.77 7.95a3.578 3.578 0 00-2.852.793c-1.133 3.259 3.385 3.925 4.785 6.25.526 1.193.926 2.926.26 4.319-.927 2.192-3.885 3.571-6.344 3.438a5.81 5.81 0 01-3.692-1.846 6.937 6.937 0 01-1.126-3.851l3.072-.034c.2 1.2.253 2.666 1.712 3.092a3.18 3.18 0 003.06-.666c2.391-4.518-5.252-5.031-5.518-9.156a3.844 3.844 0 011.579-3.485c1.66-1.5 5.797-1.966 8.056-.166M70.791 6.083c-1.66 5.377-3.125 10.728-4.664 16.112h-3.192c.246-.626.5-1.126.366-1.166-.413.334-2.239 1.333-2.985 1.333a4.731 4.731 0 01-4.078-.806c-1.193-1.06-2.14-2.24-1.393-4.985L57.83 6.043l3.079.04c-.613 1.74-2.612 7.67-3.272 11.795a1.998 1.998 0 001.793 2.259 4.438 4.438 0 003.518-1.133c2-1.546 4.665-12.921 4.785-12.961 1.066 0 2.212.12 3.058.04zM84.83 13.592h1.533l1.006-3.372h2.392l-1.013 3.372h1.54l2.232-7.444h-1.54l-.832 2.8h-2.393l.84-2.8h-1.533l-2.232 7.444zM84.459 15.03l-2.232 7.45h1.532l.96-3.2h3.258l.387-1.279h-3.259l.507-1.692h3.698l.386-1.28H84.46z" fill="#fff"/>
  </g>
</svg>
