<svg xmlns="http://www.w3.org/2000/svg" viewBox="0 0 800 474" preserveAspectRatio="xMidYMid" width="800" height="474" style="shape-rendering: auto; display: block; background: rgb(255, 255, 255);"><g data-idx="1"><g transform="matrix(100,0,0,100,670.1849365234375,65.5354232788086)" data-idx="2">
  <path stroke-width="0" fill="#fdc435" d="M3.024 0 C3.024 0.6399999999999999 3.243701763176265 1.133743741577959 2.923701763176265 1.6879999999999997 S2.066256258422041 2.2988608210441424 1.5120000000000005 2.618860821044142 S0.6400000000000001 3.376 2.067203796960732e-16 3.376 S-0.9577437415779586 2.9388608210441425 -1.5119999999999993 2.6188608210441426 S-2.603701763176264 2.2422562584220413 -2.9237017631762643 1.688000000000001 S-3.024 0.6400000000000002 -3.024 3.7033319206215963e-16 S-3.243701763176265 -1.1337437415779583 -2.923701763176265 -1.687999999999999 S-2.066256258422042 -2.2988608210441415 -1.5120000000000013 -2.6188608210441418 S-0.6400000000000006 -3.376 -6.201611390882196e-16 -3.376 S0.9577437415779572 -2.938860821044143 1.511999999999998 -2.6188608210441435 S2.6037017631762636 -2.2422562584220422 2.923701763176264 -1.6880000000000015 S3.024 -0.6400000000000007 3.024 -7.406663841243193e-16" data-idx="3" transform="matrix(0.6145606322875932,0.7888695895027731,-0.7888695895027731,0.6145606322875932,0,0)">
  </path>
</g></g></svg>