<svg xmlns="http://www.w3.org/2000/svg" viewBox="0 0 96 20" fill="none"><path d="M21.939 13.553h2.315V9.854h3.078v3.7h2.315V4.602h-2.315V7.85h-3.078V4.603H21.94v8.95zM37.44 10.814c.113-2.202-1.073-3.953-3.388-3.953-1.92 0-3.501 1.44-3.501 3.417 0 2.174 1.44 3.444 3.557 3.444 1.44 0 2.852-.649 3.22-2.145h-2.006c-.197.48-.705.706-1.214.706-.903 0-1.411-.593-1.44-1.469h4.772zm-4.772-1.186c.113-.79.622-1.327 1.384-1.327.706 0 1.214.593 1.27 1.327h-2.654zM40.433 4.603h-2.118V6.24h2.118V4.603zm-2.118 8.95h2.118V7.06h-2.118v6.494zM41.647 13.553h2.118v-3.19c0-1.328.338-1.78 1.1-1.78.566 0 .791.48.791 1.243v3.699h2.118v-3.162c0-1.045.085-1.751 1.017-1.751.564 0 .903.423.903 1.101v3.812h2.118V9.657c0-1.243-.226-2.796-2.287-2.796-.876 0-1.525.367-2.033 1.045-.34-.79-1.073-1.045-1.892-1.045-.79 0-1.468.424-1.864 1.073h-.028V7.06h-2.061v6.494zM55.172 4.603h-2.118V6.24h2.118V4.603zm-2.146 8.95h2.117V7.06h-2.117v6.494zM58.588 4.603h-2.117v8.95h2.117v-8.95zM62.005 4.603h-2.118V6.24h2.118V4.603zm-2.118 8.95h2.118V7.06h-2.118v6.494zM62.852 11.407c.056 1.807 1.638 2.344 3.19 2.344 1.469 0 3.106-.565 3.106-2.316 0-.536-.338-1.496-1.665-1.75-.989-.226-2.4-.339-2.4-.932 0-.452.564-.48.903-.48.254 0 .508.057.678.17.17.113.282.282.282.564h1.977C68.838 7.313 67.37 6.89 65.93 6.89c-1.27 0-2.965.423-2.965 2.004 0 1.75 1.666 1.78 3.021 2.118.367.085 1.045.198 1.045.678 0 .508-.593.677-.988.677-.311 0-.593-.084-.79-.226-.227-.169-.34-.395-.34-.734h-2.06zM73.835 7.03H72.51V5.055H70.39v1.977h-1.073v1.383h1.073v2.908c0 1.78.452 2.288 2.287 2.288.395 0 .79-.057 1.157-.057v-1.581c-.197 0-.366.028-.564.028-.452 0-.763-.113-.763-.621V8.414h1.328V7.031zM83.068 11.577c-.225.48-.593.706-1.242.706-.903 0-1.299-.735-1.327-1.469h4.687c.17-2.117-1.073-3.953-3.304-3.953-.762 0-1.496.254-2.032.82-.537-.65-1.525-.82-2.372-.82-.734 0-1.497.113-2.061.452-.565.339-.989.904-1.017 1.75h2.005c.113-.564.48-.818 1.073-.818.678 0 1.214.113 1.214.706 0 .226-.085.367-.734.564-1.468.311-3.784.142-3.784 2.26 0 1.326.988 1.976 2.344 1.976 1.27 0 2.117-.254 3.021-.989.593.735 1.61.989 2.513.989.706 0 1.383-.198 1.92-.565.565-.367.988-.903 1.158-1.581h-2.062v-.028zm-5.788.847c-.423 0-1.016-.141-1.016-.734 0-.537.452-.706.988-.82.536-.112 1.13-.14 1.412-.366-.029.564.14 1.92-1.384 1.92zM80.5 9.628c.085-.677.537-1.327 1.299-1.327.79 0 1.242.593 1.242 1.327H80.5zM86.033 13.553h2.118v-2.09l.565-.536 1.58 2.626h2.57l-2.682-4.066 2.371-2.456H90.1l-1.948 2.174V4.603h-2.118v8.95zM95.379 4.603H93.26V6.24h2.118V4.603zm-2.146 8.95h2.118V7.06h-2.118v6.494zM11.463 14.598H9.94c-1.186.084-1.525.79-1.835 1.468-.283-.367.112-1.13-.34-1.412-.169-.056-.197-.056-.564-.028-.367 0-.565 0-.565-.254v-4.348c.029 0 2.626-2.542 2.598-2.542l2.626 2.542v4.404c-.028.141-.226.17-.396.17zm6.834-8.612c0-.875-.65-1.525-1.525-1.553h-2.26c-.31-.028-.394-.254-.423-.395V1.44S14.174.028 12.903 0c-1.298 0-1.185 1.44-1.185 1.44v2.598c0 .14-.113.338-.424.395H9.741s2.4 2.428 2.4 2.315h3.501c.255 0 .396.141.396.452v4.292c0 .028 0 .197-.113.339-.029.028-1.666 2.258-1.723 2.371-.226.31-.17-.197-.17-.31v-4.32c0-.113 0-.17-.084-.226-.17-.17-4.715-4.518-4.8-4.602-.084.084-4.63 4.46-4.8 4.602-.084.056-.084.113-.084.226v4.32c0 .14.056.62-.17.31a228.986 228.986 0 01-1.722-2.371c-.113-.142-.113-.311-.113-.34V7.2c0-.31.141-.452.395-.452h3.501c-.028.085 2.4-2.315 2.4-2.315H7.002c-.31-.028-.395-.254-.423-.395V1.44S6.664 0 5.393 0C4.094 0 4.207 1.44 4.207 1.44v2.598c0 .14-.113.338-.423.395h-2.26C.679 4.433 0 5.11 0 5.986v6.24c0 .056 0 .197.085.31.14.226 2.795 3.728 2.795 3.728.565.734 1.242.677 1.355.677h3.332c.17 0 .141.198.141.283v2.23c0 .17.113.198.226.198h2.287c.113 0 .226 0 .226-.198v-2.23c0-.085-.028-.283.141-.283h3.332c.141 0 .819.057 1.355-.677 0 0 2.654-3.502 2.796-3.727.084-.114.084-.255.084-.311l.142-6.24z" fill="#ffffff"></path></svg>