<svg width="100" height="40" viewBox="0 0 100 40" fill="none" xmlns="http://www.w3.org/2000/svg">
<g clip-path="url(#clip0_7148_63975)">
<path d="M3.85564 9H0C0.355905 10.1676 0.583809 12.0127 0.583809 13.8921V26.789C0.583809 28.6684 0.355905 30.5167 0 31.6812H3.85564C3.49973 30.5135 3.27183 28.6684 3.27183 26.789V13.8921C3.27183 12.0127 3.49973 10.1645 3.85564 9Z" fill="#fff"/>
<path d="M96.4031 23.9699L92.613 14.8974C91.4797 12.2063 90.54 9.80859 90.2809 9H88.3359C88.0768 9.80859 87.1371 12.2094 86.0038 14.8974L82.2137 23.9699C80.659 27.7287 79.4913 30.0296 78.6172 31.6812H82.1169C82.5696 30.4168 83.3813 28.1814 84.1275 26.302H94.4331C95.1793 28.1814 95.9879 30.4168 96.4437 31.6812H100.009C99.1348 30.0296 97.9672 27.7287 96.4124 23.9699H96.4031ZM84.9642 24.1322L89.2725 13.1148L93.5808 24.1322H84.961H84.9642Z" fill="#fff"/>
<path d="M33.1837 11.1698C36.7802 11.1698 39.6961 11.4945 41.7723 12.175L41.1229 9H14.583L13.9336 12.175C16.0066 11.4945 18.8913 11.1698 22.4878 11.1698V26.789C22.4878 28.6684 22.2599 30.5167 21.904 31.6812H25.7596C25.4037 30.5135 25.1758 28.6684 25.1758 26.789V11.1698H30.4894V26.789C30.4894 28.6684 30.2615 30.5167 29.9056 31.6812H33.7613C33.4054 30.5135 33.1775 28.6684 33.1775 26.789V11.1698H33.1837Z" fill="#fff"/>
<path d="M42.8712 31.6843C43.3239 30.4199 44.1356 28.1845 44.8818 26.3051H55.1874C55.9336 28.1845 56.7422 30.4199 57.198 31.6843H60.7633C59.8891 30.0327 58.7215 27.7318 57.1668 23.973L53.3767 14.9005C52.2434 12.2094 51.3037 9.8117 51.0446 9.00311H49.0996C48.8404 9.8117 47.9007 12.2125 46.7675 14.9005L42.9774 23.973C41.4226 27.7318 40.255 30.0327 39.3809 31.6843H42.8806H42.8712ZM50.033 13.1148L54.3414 24.1322H45.7216L50.0299 13.1148H50.033Z" fill="#fff"/>
<path d="M11.0827 9H7.22705C7.58296 10.1676 7.81086 12.0127 7.81086 13.8921V26.789C7.81086 28.6684 7.58296 30.5167 7.22705 31.6812H11.0827C10.7268 30.5135 10.4989 28.6684 10.4989 26.789V13.8921C10.4989 12.0127 10.7268 10.1645 11.0827 9Z" fill="#fff"/>
<path d="M66.5262 13.8921C66.5262 12.0127 66.7541 10.1645 67.11 9H63.2544C63.6103 10.1676 63.8382 12.0127 63.8382 13.8921V26.789C63.8382 28.6684 63.6103 30.5167 63.2544 31.6812H75.9577L76.6071 28.5061C74.5341 29.1867 71.1967 29.5114 66.5293 29.5426V13.8921H66.5262Z" fill="#fff"/>
</g>
<defs>
<clipPath id="clip0_7148_63975">
<rect width="100" height="22.6843" fill="white" transform="translate(0 9)"/>
</clipPath>
</defs>
</svg>
