<svg xmlns="http://www.w3.org/2000/svg" viewBox="0 0 138 32" fill="none"><g fill="#fff" clip-path="url(#KunigindLogo_svg__clip0_5179_57044)"><path d="M93.287 1.627L90.93 0l-3.095 5.138 1.505 1.028 3.946-4.539zM134.82 11.39c-2.072-2.17-4.968-3.226-8.743-3.226h-4.514v23.15h4.514c3.747 0 6.671-1.055 8.743-3.14 2.073-2.083 3.208-4.938 3.208-8.363-.028-3.568-1.164-6.337-3.208-8.421zm-10.731-.771h2.073c2.725 0 5.081.856 6.756 2.455 1.59 1.713 2.527 3.882 2.527 6.651 0 2.855-.937 5.138-2.725 6.823-1.59 1.513-3.861 2.369-6.587 2.369h-2.072V10.619h.028zM119.774 32V8.45h-2.356v17.47L100.611 7.508V31.03h2.442V13.56L119.774 32zM98.454 7.964h-2.442v14.13c0 1.228-.085 2.17-.198 2.741-.2.657-.37 1.227-.653 1.713-.37.656-1.022 1.341-1.874 1.798-.852.485-1.788.657-2.725.657s-1.874-.2-2.726-.657a6.449 6.449 0 01-1.987-1.798c-.284-.571-.483-1.142-.568-1.713-.085-.485-.085-1.427-.085-2.74V7.965h-2.441V22.78a9.815 9.815 0 00.284 3.14c.198.856.567 1.627 1.022 2.37.738.941 1.703 1.712 2.924 2.283a7.067 7.067 0 003.577.942c1.306 0 2.441-.286 3.662-.942a8.215 8.215 0 002.81-2.284c.937-1.227 1.42-3.14 1.42-5.51V7.965zM80.597 23.836c.199-1.056.284-2.455.284-4.168h-8.914v2.455h6.302c0 .657-.085 1.342-.199 1.713-.085.485-.369.942-.653 1.513-.653 1.142-1.59 2.084-2.81 2.855-1.136.656-2.442 1.056-3.748 1.056-2.441 0-4.513-.942-6.188-2.855-1.704-1.912-2.527-4.168-2.527-6.937 0-2.569.852-4.652 2.64-6.537 1.789-1.798 3.861-2.74 6.303-2.74 1.42 0 2.725.485 4.03 1.342 1.136.656 2.244 1.713 3.095 3.026l1.789-1.713c-1.22-1.627-2.527-2.855-3.946-3.711-1.505-.857-3.208-1.342-4.968-1.342-3.095 0-5.82 1.142-7.978 3.426-2.242 2.283-3.378 5.024-3.293 8.25-.085 3.425 1.022 6.365 3.208 8.735 2.158 2.283 4.798 3.51 7.977 3.51 1.505 0 2.924-.37 4.43-1.141a14.337 14.337 0 003.576-3.026c.653-1.17 1.22-2.398 1.59-3.711zM27.424 1.627L25.096 0l-3.123 5.138 1.505 1.028 3.946-4.539zM59.56 1.627L57.205 0 54.11 5.138l1.505 1.028 3.946-4.539zM57.97 7.879h-2.355v23.636h2.356V7.879zM53.542 8.364h-2.328V25.92L34.294 7.394V31.03h2.442V13.56L53.542 32V8.364zM29.979 24.863a4.513 4.513 0 01-.568 1.713c-.482.657-1.022 1.342-1.959 1.799-.851.485-1.788.656-2.725.656-1.022 0-1.874-.2-2.725-.656a5.934 5.934 0 01-2.073-1.799c-.284-.57-.568-1.142-.568-1.713-.085-.485-.085-1.427-.085-2.74V7.964H16.75V22.78c0 1.341.085 2.369.284 3.14.283.856.652 1.627 1.135 2.37.738.941 1.703 1.712 2.924 2.283 1.136.656 2.357.942 3.662.942 1.221 0 2.527-.286 3.663-.942a8.123 8.123 0 002.924-2.284c.937-1.227 1.42-3.14 1.42-5.51V7.965h-2.527v14.13c-.086 1.257-.086 2.199-.256 2.77zM15.5 8.164h-3.378l-9.68 9.963V8.164H0v23.15h2.441v-9.962l.653-.656 9.227 10.619h3.463L4.968 18.983 15.501 8.164z"></path></g><defs><clipPath id="KunigindLogo_svg__clip0_5179_57044"><path fill="#fff" d="M0 0h138v32H0z"></path></clipPath></defs></svg>