<svg width="136" height="52" viewBox="0 0 136 52" fill="none" xmlns="http://www.w3.org/2000/svg">
<g clip-path="url(#clip0_7305:74155)">
<g style="mix-blend-mode:multiply">
<g style="mix-blend-mode:multiply">
<g style="mix-blend-mode:multiply">
<g style="mix-blend-mode:multiply">
<g style="mix-blend-mode:multiply">
<path d="M13.3025 28.471C13.1442 28.0659 12.8318 27.7401 12.4337 27.5648C12.0356 27.3896 11.5843 27.3793 11.1787 27.5362L1.01408 31.4554L0.985845 31.4658C0.63492 31.6139 0.346365 31.8793 0.169574 32.2167C-0.00721724 32.5541 -0.0612545 32.9424 0.0167153 33.3152C0.0946851 33.688 0.299812 34.0221 0.596984 34.2604C0.894156 34.4986 1.26489 34.6262 1.64574 34.6212C1.86495 34.6213 2.0819 34.5768 2.28336 34.4904L12.3677 30.6053C12.5694 30.5279 12.7537 30.4113 12.9101 30.2622C13.0664 30.1132 13.1917 29.9346 13.2786 29.7368C13.3655 29.539 13.4124 29.326 13.4165 29.11C13.4206 28.894 13.3819 28.6794 13.3025 28.4784" fill="#00A1AC"/>
</g>
</g>
</g>
</g>
</g>
<g style="mix-blend-mode:multiply">
<g style="mix-blend-mode:multiply">
<g style="mix-blend-mode:multiply">
<path d="M8.49739 5.47251C8.28765 5.41812 8.06922 5.40577 7.85469 5.43617C7.64015 5.46657 7.43375 5.53912 7.24738 5.64964C7.06101 5.76016 6.89835 5.90648 6.76878 6.08014C6.63921 6.25381 6.54529 6.4514 6.49242 6.66153L0.0390454 32.6266C-0.0522194 33.0504 0.0276113 33.4931 0.261155 33.8583C0.494699 34.2235 0.863051 34.4817 1.28602 34.5766C1.39977 34.6015 1.51589 34.614 1.63233 34.6138C1.99347 34.6039 2.34403 34.4897 2.64176 34.2851C2.93949 34.0804 3.17168 33.794 3.31032 33.4604L3.33262 33.4084L9.77855 7.48046L9.7949 7.41507V7.34818C9.82326 6.93351 9.70923 6.52157 9.47167 6.18051C9.23412 5.83944 8.88727 5.58967 8.48847 5.47251" fill="#FDC300"/>
</g>
</g>
</g>
<g style="mix-blend-mode:multiply">
<g style="mix-blend-mode:multiply">
<g style="mix-blend-mode:multiply">
<g style="mix-blend-mode:multiply">
<g style="mix-blend-mode:multiply">
<path d="M6.48771 52.0014C6.36926 52.001 6.25119 51.988 6.13546 51.9628C5.92428 51.9176 5.72415 51.8309 5.54664 51.7079C5.36912 51.5849 5.21774 51.4279 5.10125 51.246C4.98475 51.0642 4.90544 50.861 4.8679 50.6483C4.83036 50.4356 4.83534 50.2176 4.88254 50.0069L10.1811 28.6611C10.2899 28.2393 10.5618 27.878 10.9369 27.6567C11.3121 27.4354 11.7598 27.3722 12.1816 27.481C12.6034 27.5898 12.9646 27.8617 13.186 28.2369C13.4073 28.612 13.4705 29.0597 13.3617 29.4815L8.08098 50.7351C7.99765 51.0952 7.79477 51.4165 7.50542 51.6464C7.21606 51.8764 6.85732 52.0016 6.48771 52.0014Z" fill="#6D3F88"/>
</g>
</g>
</g>
</g>
</g>
<g style="mix-blend-mode:multiply">
<g style="mix-blend-mode:multiply">
<g style="mix-blend-mode:multiply">
<path d="M24.078 14.8539C23.688 14.659 23.2367 14.6267 22.823 14.7641C22.4093 14.9014 22.0669 15.1972 21.8709 15.5866L4.9854 49.6786C4.8057 50.0752 4.79068 50.5269 4.94366 50.9345C5.09664 51.3422 5.40511 51.6725 5.80136 51.853C5.99613 51.9436 6.20687 51.995 6.42152 52.0042C6.63616 52.0134 6.85052 51.9802 7.05233 51.9065C7.25413 51.8328 7.43942 51.72 7.59762 51.5747C7.75582 51.4293 7.88381 51.2542 7.97428 51.0593L24.8048 17.0535C24.9985 16.6652 25.0309 16.216 24.8947 15.8039C24.7586 15.3918 24.465 15.0503 24.078 14.8539Z" fill="#FDC300"/>
</g>
</g>
</g>
<g style="mix-blend-mode:multiply">
<g style="mix-blend-mode:multiply">
<g style="mix-blend-mode:multiply">
<path d="M22.1322 0.175415C21.9389 0.0785989 21.7284 0.0208317 21.5128 0.00541124C21.2971 -0.0100092 21.0806 0.0172231 20.8754 0.0855484C20.6703 0.153874 20.4807 0.26195 20.3174 0.403607C20.1541 0.545264 20.0203 0.717722 19.9236 0.911118L11.275 18.6556C11.1368 18.9512 11.0902 19.2813 11.1412 19.6036C11.1921 19.9258 11.3383 20.2255 11.561 20.4639C11.7836 20.7024 12.0725 20.8688 12.3905 20.9417C12.7085 21.0147 13.0411 20.9908 13.3454 20.8732C13.5453 20.8 13.7287 20.688 13.885 20.5436C14.0414 20.3992 14.1677 20.2253 14.2565 20.0319L22.8605 2.38103C23.0556 1.99184 23.0885 1.54118 22.952 1.12777C22.8155 0.714354 22.5207 0.371896 22.1322 0.175415Z" fill="#FDC300"/>
</g>
</g>
</g>
<g style="mix-blend-mode:multiply">
<g style="mix-blend-mode:multiply">
<g style="mix-blend-mode:multiply">
<g style="mix-blend-mode:multiply">
<g style="mix-blend-mode:multiply">
<path d="M12.7704 20.9803C12.5048 20.9794 12.2433 20.9147 12.0079 20.7916C11.7201 20.6406 11.4835 20.4076 11.3281 20.122C11.1728 19.8365 11.1056 19.5113 11.1352 19.1876C11.1648 18.8639 11.2898 18.5562 11.4944 18.3036C11.699 18.051 11.9739 17.8648 12.2844 17.7685L22.9052 14.732C23.3254 14.6173 23.774 14.6743 24.1522 14.8903C24.5304 15.1063 24.8074 15.4637 24.9221 15.8839C25.0368 16.3041 24.9799 16.7527 24.7639 17.1309C24.5478 17.5091 24.1904 17.7861 23.7702 17.9008L13.2489 20.9075C13.0956 20.956 12.9357 20.9806 12.7748 20.9803" fill="#00A1AC"/>
</g>
</g>
</g>
</g>
</g>
<g style="mix-blend-mode:multiply">
<g style="mix-blend-mode:multiply">
<g style="mix-blend-mode:multiply">
<path d="M8.04133 8.71556C7.83423 8.71495 7.62907 8.67564 7.43642 8.59963C7.1315 8.48347 6.86831 8.27872 6.68072 8.01173C6.49314 7.74474 6.38973 7.42773 6.38381 7.10148C6.3779 6.77523 6.46974 6.45468 6.64753 6.18107C6.82532 5.90745 7.08092 5.6933 7.38143 5.56616L20.789 0.116023C20.9903 0.0366068 21.2053 -0.00232051 21.4217 0.00147362C21.6381 0.00526775 21.8516 0.0517096 22.0499 0.138135C22.2483 0.22456 22.4277 0.349275 22.5779 0.505134C22.728 0.660993 22.8459 0.844935 22.9248 1.04643C23.0826 1.45246 23.0728 1.90451 22.8975 2.3033C22.7222 2.70208 22.3958 3.01498 21.9899 3.17327L8.67745 8.58328C8.47682 8.67085 8.26023 8.71589 8.04133 8.71556Z" fill="#6D3F88"/>
</g>
</g>
</g>
<path d="M37.4421 16.9806C37.4421 16.877 37.4833 16.7775 37.5566 16.7042C37.6299 16.6309 37.7294 16.5897 37.833 16.5897H43.729C44.3152 16.5852 44.8965 16.6963 45.4397 16.9167C45.9829 17.1371 46.4772 17.4624 46.8946 17.8741C47.3119 18.2858 47.6439 18.7757 47.8717 19.3158C48.0995 19.8559 48.2185 20.4356 48.222 21.0218C48.222 22.9183 46.9646 24.464 45.1707 25.1833L47.9946 30.4194C48.0322 30.4798 48.0525 30.5494 48.0533 30.6205C48.0541 30.6917 48.0355 30.7617 47.9993 30.8229C47.9632 30.8842 47.9109 30.9344 47.8483 30.9681C47.7856 31.0017 47.7149 31.0176 47.6439 31.0139H45.4813C45.4143 31.0178 45.3476 31.0023 45.2892 30.9694C45.2307 30.9365 45.1829 30.8874 45.1514 30.8282L42.4092 25.3661H40.1204V30.6231C40.117 30.7257 40.0748 30.8232 40.0022 30.8958C39.9296 30.9683 39.8321 31.0106 39.7295 31.0139H37.833C37.7294 31.0139 37.6299 30.9728 37.5566 30.8995C37.4833 30.8262 37.4421 30.7267 37.4421 30.6231V16.9806ZM43.4957 23.165C44.5881 23.165 45.5363 22.2167 45.5363 21.0619C45.5228 20.5288 45.3022 20.0219 44.9212 19.6487C44.5403 19.2756 44.029 19.0654 43.4957 19.0629H40.1412V23.165H43.4957Z" fill="#1D1D1B"/>
<path d="M50.3327 30.4834L56.7444 16.6106C56.7732 16.5418 56.822 16.4832 56.8846 16.4426C56.9472 16.4021 57.0206 16.3813 57.0952 16.3832H57.3003C57.3754 16.3787 57.4499 16.3983 57.513 16.4392C57.5762 16.4802 57.6245 16.5402 57.6511 16.6106L64.0004 30.4834C64.0313 30.5411 64.0462 30.6061 64.0433 30.6715C64.0404 30.737 64.0199 30.8004 63.984 30.8552C63.9481 30.91 63.8981 30.954 63.8393 30.9828C63.7804 31.0115 63.7149 31.0238 63.6496 31.0185H61.8483C61.5391 31.0185 61.395 30.8951 61.2538 30.6068L60.2431 28.3774H54.0781L53.0674 30.6068C53.0241 30.7291 52.9433 30.8347 52.8366 30.9086C52.7299 30.9825 52.6027 31.0209 52.4729 31.0185H50.676C50.6107 31.0238 50.5452 31.0115 50.4864 30.9828C50.4275 30.954 50.3775 30.91 50.3416 30.8552C50.3057 30.8004 50.2852 30.737 50.2823 30.6715C50.2795 30.6061 50.2943 30.5411 50.3253 30.4834H50.3327ZM59.231 26.093L57.1695 21.5569H57.1086L55.0887 26.093H59.231Z" fill="#1D1D1B"/>
<path d="M66.2362 16.9807C66.2362 16.9293 66.2463 16.8783 66.2661 16.8308C66.2858 16.7833 66.3147 16.7401 66.3512 16.7038C66.3876 16.6675 66.4309 16.6387 66.4785 16.6192C66.5261 16.5996 66.5771 16.5897 66.6285 16.5898H75.0185C75.1222 16.5898 75.2216 16.631 75.2949 16.7043C75.3682 16.7776 75.4094 16.8771 75.4094 16.9807V18.6721C75.4094 18.7758 75.3682 18.8752 75.2949 18.9485C75.2216 19.0218 75.1222 19.063 75.0185 19.063H68.9114V22.9392H74.0034C74.1061 22.9422 74.2038 22.9843 74.2765 23.057C74.3491 23.1296 74.3913 23.2273 74.3943 23.3301V25.02C74.3913 25.1228 74.3492 25.2207 74.2766 25.2936C74.2039 25.3665 74.1062 25.409 74.0034 25.4123H68.9114V30.6276C68.9077 30.7301 68.8654 30.8274 68.7928 30.8999C68.7203 30.9725 68.623 31.0148 68.5205 31.0185H66.6241C66.5726 31.0187 66.5216 31.0087 66.474 30.9892C66.4264 30.9696 66.3832 30.9409 66.3467 30.9046C66.3103 30.8682 66.2813 30.8251 66.2616 30.7776C66.2419 30.73 66.2317 30.6791 66.2317 30.6276L66.2362 16.9807Z" fill="#1D1D1B"/>
<path d="M78.8896 16.9807C78.8896 16.8771 78.9308 16.7776 79.0041 16.7043C79.0774 16.631 79.1769 16.5898 79.2805 16.5898H81.177C81.2798 16.5932 81.3774 16.6354 81.4503 16.7079C81.5231 16.7805 81.5657 16.878 81.5694 16.9807V28.5454H86.8248C86.9289 28.5454 87.0287 28.5867 87.1023 28.6603C87.1758 28.7339 87.2172 28.8337 87.2172 28.9378V30.6276C87.2172 30.6791 87.207 30.7301 87.1873 30.7776C87.1676 30.8251 87.1386 30.8682 87.1022 30.9046C87.0657 30.9409 87.0225 30.9696 86.9749 30.9892C86.9273 31.0088 86.8763 31.0187 86.8248 31.0185H79.2805C79.1769 31.0185 79.0774 30.9773 79.0041 30.904C78.9308 30.8307 78.8896 30.7313 78.8896 30.6276V16.9807Z" fill="#1D1D1B"/>
<path d="M89.1145 30.4834L95.5262 16.6106C95.5549 16.542 95.6035 16.4836 95.6658 16.4431C95.7281 16.4025 95.8012 16.3816 95.8755 16.3832H96.0821C96.1572 16.3787 96.2317 16.3983 96.2949 16.4392C96.358 16.4802 96.4063 16.5402 96.4329 16.6106L102.781 30.4834C102.812 30.5409 102.827 30.6059 102.825 30.6714C102.822 30.7369 102.802 30.8005 102.766 30.8554C102.73 30.9103 102.68 30.9544 102.621 30.9831C102.562 31.0118 102.497 31.0241 102.431 31.0185H100.638C100.328 31.0185 100.192 30.8951 100.043 30.6068L99.0324 28.3774H92.8688L91.8596 30.6068C91.8161 30.729 91.7353 30.8345 91.6286 30.9083C91.522 30.9822 91.3948 31.0207 91.2651 31.0185H89.4712C89.4059 31.0238 89.3404 31.0115 89.2815 30.9828C89.2227 30.954 89.1727 30.91 89.1368 30.8552C89.1008 30.8004 89.0804 30.737 89.0775 30.6716C89.0746 30.6061 89.0894 30.5411 89.1204 30.4834H89.1145ZM98.0261 26.093L95.9617 21.5569H95.8993L93.8809 26.093H98.0261Z" fill="#1D1D1B"/>
<path d="M105.689 16.7546C105.693 16.6541 105.736 16.5591 105.809 16.4898C105.882 16.4205 105.979 16.3822 106.08 16.3831H106.596L115.171 25.4939H115.192V16.9805C115.192 16.8769 115.233 16.7775 115.307 16.7042C115.38 16.6308 115.479 16.5897 115.583 16.5897H117.48C117.582 16.593 117.68 16.6352 117.753 16.7077C117.826 16.7803 117.868 16.8778 117.872 16.9805V30.8534C117.868 30.9542 117.824 31.0493 117.751 31.1187C117.678 31.1881 117.58 31.2262 117.48 31.2249H116.985L108.364 21.7634H108.344V30.6274C108.344 30.7311 108.302 30.8305 108.229 30.9038C108.156 30.9772 108.056 31.0183 107.953 31.0183H106.075C105.973 31.015 105.875 30.9727 105.803 30.9001C105.73 30.8276 105.688 30.7301 105.685 30.6274L105.689 16.7546Z" fill="#1D1D1B"/>
<path d="M122.655 16.9807C122.654 16.8801 122.692 16.7831 122.762 16.7102C122.831 16.6372 122.926 16.5941 123.026 16.5898H127.916C131.895 16.5898 135.151 19.8255 135.151 23.7834C135.149 25.7015 134.386 27.5405 133.03 28.8968C131.673 30.2531 129.834 31.0162 127.916 31.0185H123.026C122.926 31.0143 122.831 30.9711 122.762 30.8982C122.692 30.8253 122.654 30.7283 122.655 30.6276V16.9807ZM127.664 28.5038C130.339 28.5038 132.302 26.4839 132.302 23.7834C132.302 21.0828 130.343 19.0838 127.664 19.0838H125.314V28.5038H127.664Z" fill="#1D1D1B"/>
</g>
<defs>
<clipPath id="clip0_7305:74155">
<rect width="135.146" height="52" fill="white"/>
</clipPath>
</defs>
</svg>
