<svg xmlns="http://www.w3.org/2000/svg" viewBox="0 0 98.24 66.72"><defs><style>.TlLogo_svg__cls-1{fill:#fff}.TlLogo_svg__cls-2{fill:#166CC8}.TlLogo_svg__cls-3{fill:#fff}</style></defs><g id="TlLogo_svg__Layer_2" data-name="Layer 2"><g id="TlLogo_svg__Layer_1-2" data-name="Layer 1"><path class="TlLogo_svg__cls-1" d="M4 66.71a4 4 0 01-4-4V4a4 4 0 014-4h90.2a4 4 0 014 4v58.69a4 4 0 01-4 4z"></path><path class="TlLogo_svg__cls-2" d="M5.13 4.91h87.98V61.8H5.13z"></path><path class="TlLogo_svg__cls-2" d="M6.38 6.16h85.48v54.4H6.38z"></path><path class="TlLogo_svg__cls-1" d="M12.93 30.54v-14.9H9.28v-4.39h14.33v4.39h-3.64v14.9h-7.04zM28.51 30.68a4.41 4.41 0 01-3.35-1.05 5.27 5.27 0 01-1-3.58V15.23a4.15 4.15 0 011-3.12 4.64 4.64 0 013.28-1h7.4a5 5 0 013.46 1 4.09 4.09 0 011 3.14v10.8a5.23 5.23 0 01-1 3.61 4.81 4.81 0 01-3.51 1zm2.54-14.16v8.76a2.26 2.26 0 00.25 1.23 1.27 1.27 0 001 .37 1.31 1.31 0 001-.36 2.28 2.28 0 00.25-1.24v-8.76a2.28 2.28 0 00-.26-1.25 1.27 1.27 0 00-1-.39 1.24 1.24 0 00-1 .39 2.34 2.34 0 00-.25 1.25M32.95 7.09h3.42v3.16h-3.42zM28.24 7.09h3.4v3.16h-3.4zM41.98 30.54V11.25h7.08v14.89h4.36v4.4H41.98zM55.64 30.54l-3.88-19.29h7.4l1.28 12.26 1.26-12.26h7.4l-3.88 19.29h-9.58zM85.92 11.25v14.81a5.2 5.2 0 01-1 3.6 4.82 4.82 0 01-3.52 1h-7.17a4.37 4.37 0 01-3.33-1 5.22 5.22 0 01-1-3.58V11.25H77v13.67a2 2 0 00.21 1 .76.76 0 00.68.32.81.81 0 00.71-.31 2 2 0 00.21-1.06V11.25z"></path><path class="TlLogo_svg__cls-3" d="M12.89 57.77V32.8h4.95v19.75h4.89v5.22h-9.84zM23.84 32.8h4.95v24.98h-4.95zM30.41 47.75h5v4.89a1.91 1.91 0 00.17 1 .64.64 0 00.58.28.7.7 0 00.54-.22.75.75 0 00.21-.55v-4.23a2.26 2.26 0 00-.2-1.09 2 2 0 00-.78-.67l-3.33-2a4.12 4.12 0 01-1.65-1.72 6.24 6.24 0 01-.52-2.78v-2.88c0-2.23.32-3.64.95-4.24s2.21-.9 4.73-.9c2.36 0 3.9.27 4.61.8a3.37 3.37 0 011.06 2.83v5.23h-4.91v-3.56a1.87 1.87 0 00-.18-1 .69.69 0 00-.61-.25.59.59 0 00-.53.28 2 2 0 00-.16 1v2.33a2.23 2.23 0 00.2 1.07 2 2 0 00.78.68l3.07 1.76a4.39 4.39 0 011.78 1.67 5.47 5.47 0 01.54 2.64v5.69a9.72 9.72 0 01-.14 1.9 2.86 2.86 0 01-.47 1.08 2.36 2.36 0 01-1.39.91 16.27 16.27 0 01-3.58.26C33.6 58 32 57.65 31.36 57s-.95-2-.95-4.24zM45.25 57.78V37.31h-2.54V32.8h10.04v4.52l-2.55-.01v20.47h-4.95zM53.85 32.8h4.95v24.98h-4.95zM60.98 57.78V32.8h4.62l2.47 12.8V32.8h4.31v24.98h-4.63l-2.49-12.24v12.24h-4.28zM74.51 57.78V32.8h4.63l2.47 12.8V32.8h4.31v24.98h-4.64L78.8 45.54v12.24h-4.29z"></path></g></g></svg>